<mxfile host="app.diagrams.net" modified="2023-12-19T00:02:23.900Z" agent="Mozilla/5.0 (Windows NT 10.0; Win64; x64) AppleWebKit/537.36 (KHTML, like Gecko) Chrome/120.0.0.0 Safari/537.36" etag="eZZPlhwuvbMm1i3270--" version="22.1.11" type="github">
  <diagram name="Page-1" id="13e1069c-82ec-6db2-03f1-153e76fe0fe0">
    <mxGraphModel dx="1434" dy="1656" grid="1" gridSize="10" guides="1" tooltips="1" connect="1" arrows="1" fold="1" page="1" pageScale="1" pageWidth="1100" pageHeight="850" background="none" math="0" shadow="0">
      <root>
        <mxCell id="0" />
        <mxCell id="1" parent="0" />
        <mxCell id="7baba1c4bc27f4b0-40" value="Server receives Discover" style="shape=note;whiteSpace=wrap;html=1;size=14;verticalAlign=top;align=left;spacingTop=-6;rounded=0;shadow=0;comic=0;labelBackgroundColor=none;strokeWidth=1;fontFamily=Verdana;fontSize=12" parent="1" vertex="1">
          <mxGeometry x="720" y="-600" width="110" height="35" as="geometry" />
        </mxCell>
        <mxCell id="HqaKTfkd9T0MdslLvnl7-7" value="DHCP Client" style="shape=umlLifeline;perimeter=lifelinePerimeter;whiteSpace=wrap;html=1;container=0;collapsible=0;recursiveResize=0;outlineConnect=0;rounded=1;shadow=0;comic=0;labelBackgroundColor=none;strokeWidth=1;fontFamily=Verdana;fontSize=12;align=center;" vertex="1" parent="1">
          <mxGeometry x="360" y="-660" width="100" height="440" as="geometry" />
        </mxCell>
        <mxCell id="HqaKTfkd9T0MdslLvnl7-9" value="DHCP Server" style="shape=umlLifeline;perimeter=lifelinePerimeter;whiteSpace=wrap;html=1;container=0;collapsible=0;recursiveResize=0;outlineConnect=0;rounded=1;shadow=0;comic=0;labelBackgroundColor=none;strokeWidth=1;fontFamily=Verdana;fontSize=12;align=center;" vertex="1" parent="1">
          <mxGeometry x="650" y="-660" width="100" height="440" as="geometry" />
        </mxCell>
        <mxCell id="HqaKTfkd9T0MdslLvnl7-14" value="DHCP Discover" style="html=1;verticalAlign=bottom;endArrow=open;dashed=1;endSize=8;labelBackgroundColor=none;fontFamily=Verdana;fontSize=12;edgeStyle=elbowEdgeStyle;elbow=vertical;entryX=0.5;entryY=0.138;entryDx=0;entryDy=0;entryPerimeter=0;exitX=0.5;exitY=0.138;exitDx=0;exitDy=0;exitPerimeter=0;" edge="1" parent="1" source="HqaKTfkd9T0MdslLvnl7-7">
          <mxGeometry relative="1" as="geometry">
            <mxPoint x="700" y="-580" as="targetPoint" />
            <Array as="points">
              <mxPoint x="810" y="-580" />
            </Array>
            <mxPoint x="420" y="-580" as="sourcePoint" />
          </mxGeometry>
        </mxCell>
        <mxCell id="HqaKTfkd9T0MdslLvnl7-23" value="DHCP Offer" style="html=1;verticalAlign=bottom;endArrow=open;dashed=1;endSize=8;labelBackgroundColor=none;fontFamily=Verdana;fontSize=12;edgeStyle=elbowEdgeStyle;elbow=vertical;" edge="1" parent="1">
          <mxGeometry relative="1" as="geometry">
            <mxPoint x="410" y="-500" as="targetPoint" />
            <Array as="points" />
            <mxPoint x="700" y="-500" as="sourcePoint" />
          </mxGeometry>
        </mxCell>
        <mxCell id="HqaKTfkd9T0MdslLvnl7-24" value="Server sends Offer with proposed IP" style="shape=note;whiteSpace=wrap;html=1;size=14;verticalAlign=top;align=left;spacingTop=-6;rounded=0;shadow=0;comic=0;labelBackgroundColor=none;strokeWidth=1;fontFamily=Verdana;fontSize=12" vertex="1" parent="1">
          <mxGeometry x="720" y="-510" width="110" height="50" as="geometry" />
        </mxCell>
        <mxCell id="HqaKTfkd9T0MdslLvnl7-26" value="DHCP Request" style="html=1;verticalAlign=bottom;endArrow=open;dashed=1;endSize=8;labelBackgroundColor=none;fontFamily=Verdana;fontSize=12;edgeStyle=elbowEdgeStyle;elbow=vertical;exitX=0.5;exitY=0.414;exitDx=0;exitDy=0;exitPerimeter=0;entryX=0.5;entryY=0.414;entryDx=0;entryDy=0;entryPerimeter=0;" edge="1" parent="1">
          <mxGeometry relative="1" as="geometry">
            <mxPoint x="700" y="-399.8800000000001" as="targetPoint" />
            <Array as="points" />
            <mxPoint x="410" y="-400" as="sourcePoint" />
          </mxGeometry>
        </mxCell>
        <mxCell id="HqaKTfkd9T0MdslLvnl7-27" value="Client formally requests proposed IP" style="shape=note;whiteSpace=wrap;html=1;size=14;verticalAlign=top;align=left;spacingTop=-6;rounded=0;shadow=0;comic=0;labelBackgroundColor=none;strokeWidth=1;fontFamily=Verdana;fontSize=12" vertex="1" parent="1">
          <mxGeometry x="720" y="-420" width="110" height="50" as="geometry" />
        </mxCell>
        <mxCell id="HqaKTfkd9T0MdslLvnl7-28" value="DHCP Acknowledge" style="html=1;verticalAlign=bottom;endArrow=open;dashed=1;endSize=8;labelBackgroundColor=none;fontFamily=Verdana;fontSize=12;edgeStyle=elbowEdgeStyle;elbow=vertical;" edge="1" parent="1">
          <mxGeometry relative="1" as="geometry">
            <mxPoint x="410" y="-300" as="targetPoint" />
            <Array as="points" />
            <mxPoint x="700" y="-300" as="sourcePoint" />
          </mxGeometry>
        </mxCell>
        <mxCell id="HqaKTfkd9T0MdslLvnl7-29" value="Server acknowledges IP assignment" style="shape=note;whiteSpace=wrap;html=1;size=14;verticalAlign=top;align=left;spacingTop=-6;rounded=0;shadow=0;comic=0;labelBackgroundColor=none;strokeWidth=1;fontFamily=Verdana;fontSize=12" vertex="1" parent="1">
          <mxGeometry x="720" y="-320" width="110" height="50" as="geometry" />
        </mxCell>
      </root>
    </mxGraphModel>
  </diagram>
</mxfile>
